
<svg xmlns="http://www.w3.org/2000/svg" xmlns:xlink="http://www.w3.org/1999/xlink" xmlns:lucid="lucid" width="480" height="774.6"><g transform="translate(2340 -20)" lucid:page-tab-id="M~5_J0huRqIm"><path d="M-2360 0H89.06v1892.45H-2360z" fill="#fff"/><path d="M-2320 40h440v640h-440z" stroke="#000" stroke-width="4" fill="#fff"/><path d="M-2300 60h400v600h-400z" stroke="#19967d" stroke-width="2" fill="#fff"/><use xlink:href="#a" transform="matrix(1,0,0,1,-2295,65) translate(151.075 14.4)"/><path d="M-2280 260h360v300h-360z" stroke="#000" stroke-width="2" fill="#fff"/><use xlink:href="#b" transform="matrix(1,0,0,1,-2275,265) translate(99.55 14.4)"/><use xlink:href="#c" transform="matrix(1,0,0,1,-2275,265) translate(142.5 14.4)"/><use xlink:href="#d" transform="matrix(1,0,0,1,-2275,265) translate(205.5 14.4)"/><path d="M-2270.5 300h341v240h-341z" stroke="#3aa6dd" stroke-width="4" fill="#fff"/><use xlink:href="#e" transform="matrix(1,0,0,1,-2265.506329113924,305) translate(166 14.4)"/><use xlink:href="#e" transform="matrix(1,0,0,1,-2265.506329113924,305) translate(166 36)"/><use xlink:href="#e" transform="matrix(1,0,0,1,-2265.506329113924,305) translate(166 57.6)"/><use xlink:href="#e" transform="matrix(1,0,0,1,-2265.506329113924,305) translate(166 79.20000000000002)"/><use xlink:href="#e" transform="matrix(1,0,0,1,-2265.506329113924,305) translate(166 100.80000000000001)"/><use xlink:href="#e" transform="matrix(1,0,0,1,-2265.506329113924,305) translate(166 122.4)"/><use xlink:href="#e" transform="matrix(1,0,0,1,-2265.506329113924,305) translate(166 144)"/><use xlink:href="#e" transform="matrix(1,0,0,1,-2265.506329113924,305) translate(166 165.6)"/><use xlink:href="#e" transform="matrix(1,0,0,1,-2265.506329113924,305) translate(166 187.2)"/><use xlink:href="#e" transform="matrix(1,0,0,1,-2265.506329113924,305) translate(166 208.79999999999998)"/><use xlink:href="#e" transform="matrix(1,0,0,1,-2265.506329113924,305) translate(166 230.39999999999998)"/><use xlink:href="#e" transform="matrix(1,0,0,1,-2265.506329113924,305) translate(166 251.99999999999997)"/><use xlink:href="#e" transform="matrix(1,0,0,1,-2265.506329113924,305) translate(166 273.59999999999997)"/><use xlink:href="#e" transform="matrix(1,0,0,1,-2265.506329113924,305) translate(166 295.2)"/><use xlink:href="#e" transform="matrix(1,0,0,1,-2265.506329113924,305) translate(166 316.8)"/><use xlink:href="#e" transform="matrix(1,0,0,1,-2265.506329113924,305) translate(166 338.40000000000003)"/><use xlink:href="#e" transform="matrix(1,0,0,1,-2265.506329113924,305) translate(166 360.00000000000006)"/><use xlink:href="#e" transform="matrix(1,0,0,1,-2265.506329113924,305) translate(166 381.6000000000001)"/><use xlink:href="#e" transform="matrix(1,0,0,1,-2265.506329113924,305) translate(166 403.2000000000001)"/><use xlink:href="#e" transform="matrix(1,0,0,1,-2265.506329113924,305) translate(166 424.8000000000001)"/><use xlink:href="#e" transform="matrix(1,0,0,1,-2265.506329113924,305) translate(166 446.40000000000015)"/><use xlink:href="#f" transform="matrix(1,0,0,1,-2265.506329113924,305) translate(166 468.00000000000017)"/><path d="M-2270.5 300h341v32h-341z" stroke="#3aa6dd" stroke-width="2" fill="#fff" fill-opacity="0"/><g><use xlink:href="#g" transform="matrix(1,0,0,1,-2265.506329113924,305) translate(88.69999999999999 15.8375)"/><use xlink:href="#h" transform="matrix(1,0,0,1,-2265.506329113924,305) translate(185.5 15.8375)"/></g><path d="M-2258.48 340h316.96v161.2h-316.96z" stroke="#000" stroke-opacity="0" stroke-width="2" fill="#fff" fill-opacity="0"/><g><use xlink:href="#i" transform="matrix(1,0,0,1,-2253.481012658228,345) translate(0 14.4)"/><use xlink:href="#j" transform="matrix(1,0,0,1,-2253.481012658228,345) translate(10.95 14.4)"/><use xlink:href="#c" transform="matrix(1,0,0,1,-2253.481012658228,345) translate(53.900000000000006 14.4)"/><use xlink:href="#k" transform="matrix(1,0,0,1,-2253.481012658228,345) translate(116.9 14.4)"/><use xlink:href="#l" transform="matrix(1,0,0,1,-2253.481012658228,345) translate(166.85000000000002 14.4)"/><use xlink:href="#i" transform="matrix(1,0,0,1,-2253.481012658228,345) translate(0 36)"/><use xlink:href="#m" transform="matrix(1,0,0,1,-2253.481012658228,345) translate(10.95 36)"/><use xlink:href="#n" transform="matrix(1,0,0,1,-2253.481012658228,345) translate(67.85000000000001 36)"/><use xlink:href="#o" transform="matrix(1,0,0,1,-2253.481012658228,345) translate(111.85000000000001 36)"/><use xlink:href="#p" transform="matrix(1,0,0,1,-2253.481012658228,345) translate(137.8 36)"/><use xlink:href="#q" transform="matrix(1,0,0,1,-2253.481012658228,345) translate(179.70000000000002 36)"/><use xlink:href="#r" transform="matrix(1,0,0,1,-2253.481012658228,345) translate(0 57.6)"/><use xlink:href="#s" transform="matrix(1,0,0,1,-2253.481012658228,345) translate(82.9 57.6)"/><use xlink:href="#t" transform="matrix(1,0,0,1,-2253.481012658228,345) translate(142.8 57.6)"/><use xlink:href="#u" transform="matrix(1,0,0,1,-2253.481012658228,345) translate(205.70000000000002 57.6)"/><use xlink:href="#v" transform="matrix(1,0,0,1,-2253.481012658228,345) translate(0 79.20000000000002)"/><use xlink:href="#w" transform="matrix(1,0,0,1,-2253.481012658228,345) translate(33.95 79.20000000000002)"/><use xlink:href="#x" transform="matrix(1,0,0,1,-2253.481012658228,345) translate(96.9 79.20000000000002)"/><use xlink:href="#y" transform="matrix(1,0,0,1,-2253.481012658228,345) translate(168.85000000000002 79.20000000000002)"/><use xlink:href="#i" transform="matrix(1,0,0,1,-2253.481012658228,345) translate(0 100.80000000000001)"/><use xlink:href="#z" transform="matrix(1,0,0,1,-2253.481012658228,345) translate(10.95 100.80000000000001)"/><use xlink:href="#A" transform="matrix(1,0,0,1,-2253.481012658228,345) translate(52.85000000000001 100.80000000000001)"/><use xlink:href="#i" transform="matrix(1,0,0,1,-2253.481012658228,345) translate(0 122.4)"/><use xlink:href="#B" transform="matrix(1,0,0,1,-2253.481012658228,345) translate(10.95 122.4)"/><use xlink:href="#C" transform="matrix(1,0,0,1,-2253.481012658228,345) translate(77.7 122.4)"/><use xlink:href="#i" transform="matrix(1,0,0,1,-2253.481012658228,345) translate(0 144)"/><use xlink:href="#D" transform="matrix(1,0,0,1,-2253.481012658228,345) translate(10.95 144)"/><use xlink:href="#E" transform="matrix(1,0,0,1,-2253.481012658228,345) translate(105.80000000000001 144)"/><use xlink:href="#F" transform="matrix(1,0,0,1,-2253.481012658228,345) translate(142.70000000000002 144)"/><use xlink:href="#G" transform="matrix(1,0,0,1,-2253.481012658228,345) translate(201.60000000000002 144)"/><use xlink:href="#H" transform="matrix(1,0,0,1,-2253.481012658228,345) translate(254.50000000000003 144)"/></g><path d="M-2060 646.5c0 3.3-17.9 6-40 6s-40-2.7-40-6v-48c0-3.3 17.9-6 40-6s40 2.7 40 6z" stroke="#000" stroke-width="2" fill="#fff"/><path d="M-2060 598.5c0 3.3-17.9 6-40 6s-40-2.7-40-6" stroke="#000" stroke-width="2" fill="none"/><g><use xlink:href="#I" transform="matrix(1,0,0,1,-2135,609.5) translate(23.525 21.525)"/></g><path d="M-2100 543v30" stroke="#000" stroke-width="2" fill="none"/><path d="M-2099 543.03h-2V542h2z"/><path d="M-2100 588.26l-4.64-14.26h9.28z" stroke="#000" stroke-width="2"/><path d="M-2280 120h360v37.5h-360z" stroke="#000" stroke-width="2" fill="#fff"/><g><use xlink:href="#J" transform="matrix(1,0,0,1,-2275,125) translate(99.57499999999999 17.9)"/><use xlink:href="#d" transform="matrix(1,0,0,1,-2275,125) translate(205.475 17.9)"/></g><path d="M-2280 190h360v37.5h-360z" stroke="#000" stroke-width="2" fill="#fff"/><g><use xlink:href="#K" transform="matrix(1,0,0,1,-2275,195) translate(113.55 17.9)"/><use xlink:href="#d" transform="matrix(1,0,0,1,-2275,195) translate(191.5 17.9)"/></g><path d="M-2100 159.5v11" stroke="#000" stroke-width="2" fill="none"/><path d="M-2099 159.53h-2v-1.03h2z"/><path d="M-2100 185.76l-4.64-14.26h9.28z" stroke="#000" stroke-width="2"/><path d="M-2100 229.5v11" stroke="#000" stroke-width="2" fill="none"/><path d="M-2099 229.53h-2v-1.03h2z"/><path d="M-2100 255.76l-4.64-14.26h9.28z" stroke="#000" stroke-width="2"/><defs><path d="M205 0l-28-72H64L36 0H1l101-248h38L239 0h-34zm-38-99l-47-123c-12 45-31 82-46 123h93" id="L"/><path d="M115-194c55 1 70 41 70 98S169 2 115 4C84 4 66-9 55-30l1 105H24l-1-265h31l2 30c10-21 28-34 59-34zm-8 174c40 0 45-34 45-75s-6-73-45-74c-42 0-51 32-51 76 0 43 10 73 51 73" id="M"/><path d="M24 0v-261h32V0H24" id="N"/><path d="M24-231v-30h32v30H24zM24 0v-190h32V0H24" id="O"/><path d="M96-169c-40 0-48 33-48 73s9 75 48 75c24 0 41-14 43-38l32 2c-6 37-31 61-74 61-59 0-76-41-82-99-10-93 101-131 147-64 4 7 5 14 7 22l-32 3c-4-21-16-35-41-35" id="P"/><path d="M141-36C126-15 110 5 73 4 37 3 15-17 15-53c-1-64 63-63 125-63 3-35-9-54-41-54-24 1-41 7-42 31l-33-3c5-37 33-52 76-52 45 0 72 20 72 64v82c-1 20 7 32 28 27v20c-31 9-61-2-59-35zM48-53c0 20 12 33 32 33 41-3 63-29 60-74-43 2-92-5-92 41" id="Q"/><path d="M59-47c-2 24 18 29 38 22v24C64 9 27 4 27-40v-127H5v-23h24l9-43h21v43h35v23H59v120" id="R"/><path d="M100-194c62-1 85 37 85 99 1 63-27 99-86 99S16-35 15-95c0-66 28-99 85-99zM99-20c44 1 53-31 53-75 0-43-8-75-51-75s-53 32-53 75 10 74 51 75" id="S"/><path d="M117-194c89-4 53 116 60 194h-32v-121c0-31-8-49-39-48C34-167 62-67 57 0H25l-1-190h30c1 10-1 24 2 32 11-22 29-35 61-36" id="T"/><g id="a"><use transform="matrix(0.05,0,0,0.05,0,0)" xlink:href="#L"/><use transform="matrix(0.05,0,0,0.05,12,0)" xlink:href="#M"/><use transform="matrix(0.05,0,0,0.05,22,0)" xlink:href="#M"/><use transform="matrix(0.05,0,0,0.05,32,0)" xlink:href="#N"/><use transform="matrix(0.05,0,0,0.05,35.95,0)" xlink:href="#O"/><use transform="matrix(0.05,0,0,0.05,39.900000000000006,0)" xlink:href="#P"/><use transform="matrix(0.05,0,0,0.05,48.900000000000006,0)" xlink:href="#Q"/><use transform="matrix(0.05,0,0,0.05,58.900000000000006,0)" xlink:href="#R"/><use transform="matrix(0.05,0,0,0.05,63.900000000000006,0)" xlink:href="#O"/><use transform="matrix(0.05,0,0,0.05,67.85000000000001,0)" xlink:href="#S"/><use transform="matrix(0.05,0,0,0.05,77.85000000000001,0)" xlink:href="#T"/></g><path d="M30-248c118-7 216 8 213 122C240-48 200 0 122 0H30v-248zM63-27c89 8 146-16 146-99s-60-101-146-95v194" id="U"/><g id="b"><use transform="matrix(0.05,0,0,0.05,0,0)" xlink:href="#U"/><use transform="matrix(0.05,0,0,0.05,12.950000000000001,0)" xlink:href="#Q"/><use transform="matrix(0.05,0,0,0.05,22.950000000000003,0)" xlink:href="#R"/><use transform="matrix(0.05,0,0,0.05,27.950000000000003,0)" xlink:href="#Q"/></g><path d="M100-194c63 0 86 42 84 106H49c0 40 14 67 53 68 26 1 43-12 49-29l28 8c-11 28-37 45-77 45C44 4 14-33 15-96c1-61 26-98 85-98zm52 81c6-60-76-77-97-28-3 7-6 17-6 28h103" id="V"/><path d="M135-143c-3-34-86-38-87 0 15 53 115 12 119 90S17 21 10-45l28-5c4 36 97 45 98 0-10-56-113-15-118-90-4-57 82-63 122-42 12 7 21 19 24 35" id="W"/><g id="c"><use transform="matrix(0.05,0,0,0.05,0,0)" xlink:href="#L"/><use transform="matrix(0.05,0,0,0.05,12,0)" xlink:href="#P"/><use transform="matrix(0.05,0,0,0.05,21,0)" xlink:href="#P"/><use transform="matrix(0.05,0,0,0.05,30,0)" xlink:href="#V"/><use transform="matrix(0.05,0,0,0.05,40,0)" xlink:href="#W"/><use transform="matrix(0.05,0,0,0.05,49,0)" xlink:href="#W"/></g><path d="M30 0v-248h33v221h125V0H30" id="X"/><path d="M179-190L93 31C79 59 56 82 12 73V49c39 6 53-20 64-50L1-190h34L92-34l54-156h33" id="Y"/><path d="M114-163C36-179 61-72 57 0H25l-1-190h30c1 12-1 29 2 39 6-27 23-49 58-41v29" id="Z"/><g id="d"><use transform="matrix(0.05,0,0,0.05,0,0)" xlink:href="#X"/><use transform="matrix(0.05,0,0,0.05,10,0)" xlink:href="#Q"/><use transform="matrix(0.05,0,0,0.05,20,0)" xlink:href="#Y"/><use transform="matrix(0.05,0,0,0.05,29,0)" xlink:href="#V"/><use transform="matrix(0.05,0,0,0.05,39,0)" xlink:href="#Z"/></g><path d="M24 0v-248h195v40H76v63h132v40H76v65h150V0H24" id="aa"/><path d="M220-157c-53 9-28 100-34 157h-49v-107c1-27-5-49-29-50C55-147 81-57 75 0H25l-1-190h47c2 12-1 28 3 38 10-53 101-56 108 0 13-22 24-43 59-42 82 1 51 116 57 194h-49v-107c-1-25-5-48-29-50" id="ab"/><path d="M135-194c52 0 70 43 70 98 0 56-19 99-73 100-30 1-46-15-58-35L72 0H24l1-261h50v104c11-23 29-37 60-37zM114-30c31 0 40-27 40-66 0-37-7-63-39-63s-41 28-41 65c0 36 8 64 40 64" id="ac"/><path d="M185-48c-13 30-37 53-82 52C43 2 14-33 14-96s30-98 90-98c62 0 83 45 84 108H66c0 31 8 55 39 56 18 0 30-7 34-22zm-45-69c5-46-57-63-70-21-2 6-4 13-4 21h74" id="ad"/><path d="M88-194c31-1 46 15 58 34l-1-101h50l1 261h-48c-2-10 0-23-3-31C134-8 116 4 84 4 32 4 16-41 15-95c0-56 19-97 73-99zm17 164c33 0 40-30 41-66 1-37-9-64-41-64s-38 30-39 65c0 43 13 65 39 65" id="ae"/><g id="g"><use transform="matrix(0.05,0,0,0.05,0,0)" xlink:href="#aa"/><use transform="matrix(0.05,0,0,0.05,12,0)" xlink:href="#ab"/><use transform="matrix(0.05,0,0,0.05,28,0)" xlink:href="#ac"/><use transform="matrix(0.05,0,0,0.05,38.95,0)" xlink:href="#ad"/><use transform="matrix(0.05,0,0,0.05,48.95,0)" xlink:href="#ae"/><use transform="matrix(0.05,0,0,0.05,59.900000000000006,0)" xlink:href="#ae"/><use transform="matrix(0.05,0,0,0.05,70.85000000000001,0)" xlink:href="#ad"/><use transform="matrix(0.05,0,0,0.05,80.85000000000001,0)" xlink:href="#ae"/></g><path d="M67-125c0 53 21 87 73 88 37 1 54-22 65-47l45 17C233-25 199 4 140 4 58 4 20-42 15-125 8-235 124-281 211-232c18 10 29 29 36 50l-46 12c-8-25-30-41-62-41-52 0-71 34-72 86" id="af"/><path d="M133-34C117-15 103 5 69 4 32 3 11-16 11-54c-1-60 55-63 116-61 1-26-3-47-28-47-18 1-26 9-28 27l-52-2c7-38 36-58 82-57s74 22 75 68l1 82c-1 14 12 18 25 15v27c-30 8-71 5-69-32zm-48 3c29 0 43-24 42-57-32 0-66-3-65 30 0 17 8 27 23 27" id="ag"/><path d="M135-194c87-1 58 113 63 194h-50c-7-57 23-157-34-157-59 0-34 97-39 157H25l-1-190h47c2 12-1 28 3 38 12-26 28-41 61-42" id="ah"/><path d="M115-3C79 11 28 4 28-45v-112H4v-33h27l15-45h31v45h36v33H77v99c-1 23 16 31 38 25v30" id="ai"/><path d="M110-194c64 0 96 36 96 99 0 64-35 99-97 99-61 0-95-36-95-99 0-62 34-99 96-99zm-1 164c35 0 45-28 45-65 0-40-10-65-43-65-34 0-45 26-45 65 0 36 10 65 43 65" id="aj"/><path d="M135-150c-39-12-60 13-60 57V0H25l-1-190h47c2 13-1 29 3 40 6-28 27-53 61-41v41" id="ak"/><g id="h"><use transform="matrix(0.05,0,0,0.05,0,0)" xlink:href="#af"/><use transform="matrix(0.05,0,0,0.05,12.950000000000001,0)" xlink:href="#ag"/><use transform="matrix(0.05,0,0,0.05,22.950000000000003,0)" xlink:href="#ah"/><use transform="matrix(0.05,0,0,0.05,33.900000000000006,0)" xlink:href="#ai"/><use transform="matrix(0.05,0,0,0.05,39.85000000000001,0)" xlink:href="#aj"/><use transform="matrix(0.05,0,0,0.05,50.80000000000001,0)" xlink:href="#ak"/></g><path d="M16-82v-28h88v28H16" id="al"/><use transform="matrix(0.05,0,0,0.05,0,0)" xlink:href="#al" id="i"/><g id="j"><use transform="matrix(0.05,0,0,0.05,0,0)" xlink:href="#U"/><use transform="matrix(0.05,0,0,0.05,12.950000000000001,0)" xlink:href="#Q"/><use transform="matrix(0.05,0,0,0.05,22.950000000000003,0)" xlink:href="#R"/><use transform="matrix(0.05,0,0,0.05,27.950000000000003,0)" xlink:href="#Q"/></g><g id="k"><use transform="matrix(0.05,0,0,0.05,0,0)" xlink:href="#X"/><use transform="matrix(0.05,0,0,0.05,10,0)" xlink:href="#Q"/><use transform="matrix(0.05,0,0,0.05,20,0)" xlink:href="#Y"/><use transform="matrix(0.05,0,0,0.05,29,0)" xlink:href="#V"/><use transform="matrix(0.05,0,0,0.05,39,0)" xlink:href="#Z"/></g><path d="M210-169c-67 3-38 105-44 169h-31v-121c0-29-5-50-35-48C34-165 62-65 56 0H25l-1-190h30c1 10-1 24 2 32 10-44 99-50 107 0 11-21 27-35 58-36 85-2 47 119 55 194h-31v-121c0-29-5-49-35-48" id="am"/><g id="l"><use transform="matrix(0.05,0,0,0.05,0,0)" xlink:href="#O"/><use transform="matrix(0.05,0,0,0.05,3.95,0)" xlink:href="#am"/><use transform="matrix(0.05,0,0,0.05,18.900000000000002,0)" xlink:href="#M"/><use transform="matrix(0.05,0,0,0.05,28.900000000000002,0)" xlink:href="#N"/><use transform="matrix(0.05,0,0,0.05,32.85,0)" xlink:href="#V"/><use transform="matrix(0.05,0,0,0.05,42.85,0)" xlink:href="#am"/><use transform="matrix(0.05,0,0,0.05,57.800000000000004,0)" xlink:href="#V"/><use transform="matrix(0.05,0,0,0.05,67.80000000000001,0)" xlink:href="#T"/><use transform="matrix(0.05,0,0,0.05,77.80000000000001,0)" xlink:href="#R"/><use transform="matrix(0.05,0,0,0.05,82.80000000000001,0)" xlink:href="#Q"/><use transform="matrix(0.05,0,0,0.05,92.80000000000001,0)" xlink:href="#R"/><use transform="matrix(0.05,0,0,0.05,97.80000000000001,0)" xlink:href="#O"/><use transform="matrix(0.05,0,0,0.05,101.75000000000001,0)" xlink:href="#S"/><use transform="matrix(0.05,0,0,0.05,111.75,0)" xlink:href="#T"/></g><path d="M240 0l2-218c-23 76-54 145-80 218h-23L58-218 59 0H30v-248h44l77 211c21-75 51-140 76-211h43V0h-30" id="an"/><g id="m"><use transform="matrix(0.05,0,0,0.05,0,0)" xlink:href="#an"/><use transform="matrix(0.05,0,0,0.05,14.950000000000001,0)" xlink:href="#S"/><use transform="matrix(0.05,0,0,0.05,24.950000000000003,0)" xlink:href="#W"/><use transform="matrix(0.05,0,0,0.05,33.95,0)" xlink:href="#R"/><use transform="matrix(0.05,0,0,0.05,38.95,0)" xlink:href="#N"/><use transform="matrix(0.05,0,0,0.05,42.900000000000006,0)" xlink:href="#Y"/></g><path d="M84 4C-5 8 30-112 23-190h32v120c0 31 7 50 39 49 72-2 45-101 50-169h31l1 190h-30c-1-10 1-25-2-33-11 22-28 36-60 37" id="ao"/><path d="M85-194c31 0 48 13 60 33l-1-100h32l1 261h-30c-2-10 0-23-3-31C134-8 116 4 85 4 32 4 16-35 15-94c0-66 23-100 70-100zm9 24c-40 0-46 34-46 75 0 40 6 74 45 74 42 0 51-32 51-76 0-42-9-74-50-73" id="ap"/><g id="n"><use transform="matrix(0.05,0,0,0.05,0,0)" xlink:href="#ao"/><use transform="matrix(0.05,0,0,0.05,10,0)" xlink:href="#W"/><use transform="matrix(0.05,0,0,0.05,19,0)" xlink:href="#V"/><use transform="matrix(0.05,0,0,0.05,29,0)" xlink:href="#ap"/></g><path d="M101-234c-31-9-42 10-38 44h38v23H63V0H32v-167H5v-23h27c-7-52 17-82 69-68v24" id="aq"/><g id="o"><use transform="matrix(0.05,0,0,0.05,0,0)" xlink:href="#aq"/><use transform="matrix(0.05,0,0,0.05,5,0)" xlink:href="#S"/><use transform="matrix(0.05,0,0,0.05,15,0)" xlink:href="#Z"/></g><g id="p"><use transform="matrix(0.05,0,0,0.05,0,0)" xlink:href="#N"/><use transform="matrix(0.05,0,0,0.05,3.95,0)" xlink:href="#S"/><use transform="matrix(0.05,0,0,0.05,13.949999999999998,0)" xlink:href="#P"/><use transform="matrix(0.05,0,0,0.05,22.95,0)" xlink:href="#Q"/><use transform="matrix(0.05,0,0,0.05,32.95,0)" xlink:href="#N"/></g><path d="M177-190C167-65 218 103 67 71c-23-6-38-20-44-43l32-5c15 47 100 32 89-28v-30C133-14 115 1 83 1 29 1 15-40 15-95c0-56 16-97 71-98 29-1 48 16 59 35 1-10 0-23 2-32h30zM94-22c36 0 50-32 50-73 0-42-14-75-50-75-39 0-46 34-46 75s6 73 46 73" id="ar"/><path d="M68-38c1 34 0 65-14 84H32c9-13 17-26 17-46H33v-38h35" id="as"/><g id="q"><use transform="matrix(0.05,0,0,0.05,0,0)" xlink:href="#W"/><use transform="matrix(0.05,0,0,0.05,9,0)" xlink:href="#R"/><use transform="matrix(0.05,0,0,0.05,14,0)" xlink:href="#S"/><use transform="matrix(0.05,0,0,0.05,24,0)" xlink:href="#Z"/><use transform="matrix(0.05,0,0,0.05,29.950000000000003,0)" xlink:href="#Q"/><use transform="matrix(0.05,0,0,0.05,39.95,0)" xlink:href="#ar"/><use transform="matrix(0.05,0,0,0.05,49.95,0)" xlink:href="#V"/><use transform="matrix(0.05,0,0,0.05,59.95,0)" xlink:href="#as"/></g><g id="r"><use transform="matrix(0.05,0,0,0.05,0,0)" xlink:href="#M"/><use transform="matrix(0.05,0,0,0.05,10,0)" xlink:href="#V"/><use transform="matrix(0.05,0,0,0.05,20,0)" xlink:href="#Z"/><use transform="matrix(0.05,0,0,0.05,25.950000000000003,0)" xlink:href="#W"/><use transform="matrix(0.05,0,0,0.05,34.95,0)" xlink:href="#O"/><use transform="matrix(0.05,0,0,0.05,38.900000000000006,0)" xlink:href="#W"/><use transform="matrix(0.05,0,0,0.05,47.900000000000006,0)" xlink:href="#R"/><use transform="matrix(0.05,0,0,0.05,52.900000000000006,0)" xlink:href="#V"/><use transform="matrix(0.05,0,0,0.05,62.900000000000006,0)" xlink:href="#T"/><use transform="matrix(0.05,0,0,0.05,72.9,0)" xlink:href="#R"/></g><path d="M63-220v92h138v28H63V0H30v-248h175v28H63" id="at"/><path d="M33 0v-248h34V0H33" id="au"/><path d="M140-251c81 0 123 46 123 126C263-46 219 4 140 4 59 4 17-45 17-125s42-126 123-126zm0 227c63 0 89-41 89-101s-29-99-89-99c-61 0-89 39-89 99S79-25 140-24" id="av"/><g id="s"><use transform="matrix(0.05,0,0,0.05,0,0)" xlink:href="#at"/><use transform="matrix(0.05,0,0,0.05,10.950000000000001,0)" xlink:href="#au"/><use transform="matrix(0.05,0,0,0.05,15.950000000000001,0)" xlink:href="#at"/><use transform="matrix(0.05,0,0,0.05,26.900000000000002,0)" xlink:href="#av"/><use transform="matrix(0.05,0,0,0.05,40.900000000000006,0)" xlink:href="#W"/><use transform="matrix(0.05,0,0,0.05,49.900000000000006,0)" xlink:href="#as"/></g><path d="M143 0L79-87 56-68V0H24v-261h32v163l83-92h37l-77 82L181 0h-38" id="aw"/><g id="t"><use transform="matrix(0.05,0,0,0.05,0,0)" xlink:href="#S"/><use transform="matrix(0.05,0,0,0.05,10,0)" xlink:href="#T"/><use transform="matrix(0.05,0,0,0.05,20,0)" xlink:href="#al"/><use transform="matrix(0.05,0,0,0.05,25.950000000000003,0)" xlink:href="#ap"/><use transform="matrix(0.05,0,0,0.05,35.95,0)" xlink:href="#O"/><use transform="matrix(0.05,0,0,0.05,39.900000000000006,0)" xlink:href="#W"/><use transform="matrix(0.05,0,0,0.05,48.900000000000006,0)" xlink:href="#aw"/></g><path d="M115-194c53 0 69 39 70 98 0 66-23 100-70 100C84 3 66-7 56-30L54 0H23l1-261h32v101c10-23 28-34 59-34zm-8 174c40 0 45-34 45-75 0-40-5-75-45-74-42 0-51 32-51 76 0 43 10 73 51 73" id="ax"/><g id="u"><use transform="matrix(0.05,0,0,0.05,0,0)" xlink:href="#ax"/><use transform="matrix(0.05,0,0,0.05,10,0)" xlink:href="#ao"/><use transform="matrix(0.05,0,0,0.05,20,0)" xlink:href="#aq"/><use transform="matrix(0.05,0,0,0.05,24.65,0)" xlink:href="#aq"/><use transform="matrix(0.05,0,0,0.05,29.649999999999995,0)" xlink:href="#V"/><use transform="matrix(0.05,0,0,0.05,39.65,0)" xlink:href="#Z"/><use transform="matrix(0.05,0,0,0.05,45.6,0)" xlink:href="#O"/><use transform="matrix(0.05,0,0,0.05,49.550000000000004,0)" xlink:href="#T"/><use transform="matrix(0.05,0,0,0.05,59.550000000000004,0)" xlink:href="#ar"/><use transform="matrix(0.05,0,0,0.05,69.55000000000001,0)" xlink:href="#as"/></g><g id="v"><use transform="matrix(0.05,0,0,0.05,0,0)" xlink:href="#ao"/><use transform="matrix(0.05,0,0,0.05,10,0)" xlink:href="#T"/><use transform="matrix(0.05,0,0,0.05,20,0)" xlink:href="#O"/><use transform="matrix(0.05,0,0,0.05,23.95,0)" xlink:href="#R"/></g><g id="w"><use transform="matrix(0.05,0,0,0.05,0,0)" xlink:href="#R"/><use transform="matrix(0.05,0,0,0.05,5,0)" xlink:href="#V"/><use transform="matrix(0.05,0,0,0.05,15,0)" xlink:href="#W"/><use transform="matrix(0.05,0,0,0.05,24,0)" xlink:href="#R"/><use transform="matrix(0.05,0,0,0.05,29,0)" xlink:href="#O"/><use transform="matrix(0.05,0,0,0.05,32.95,0)" xlink:href="#T"/><use transform="matrix(0.05,0,0,0.05,42.95,0)" xlink:href="#ar"/><use transform="matrix(0.05,0,0,0.05,52.95,0)" xlink:href="#as"/></g><path d="M106-169C34-169 62-67 57 0H25v-261h32l-1 103c12-21 28-36 61-36 89 0 53 116 60 194h-32v-121c2-32-8-49-39-48" id="ay"/><g id="x"><use transform="matrix(0.05,0,0,0.05,0,0)" xlink:href="#P"/><use transform="matrix(0.05,0,0,0.05,9,0)" xlink:href="#Q"/><use transform="matrix(0.05,0,0,0.05,19,0)" xlink:href="#P"/><use transform="matrix(0.05,0,0,0.05,28,0)" xlink:href="#ay"/><use transform="matrix(0.05,0,0,0.05,38,0)" xlink:href="#O"/><use transform="matrix(0.05,0,0,0.05,41.95,0)" xlink:href="#T"/><use transform="matrix(0.05,0,0,0.05,51.95,0)" xlink:href="#ar"/><use transform="matrix(0.05,0,0,0.05,61.95,0)" xlink:href="#as"/></g><path d="M33 0v-38h34V0H33" id="az"/><g id="y"><use transform="matrix(0.05,0,0,0.05,0,0)" xlink:href="#V"/><use transform="matrix(0.05,0,0,0.05,10,0)" xlink:href="#R"/><use transform="matrix(0.05,0,0,0.05,15,0)" xlink:href="#P"/><use transform="matrix(0.05,0,0,0.05,24,0)" xlink:href="#az"/></g><path d="M197 0v-115H63V0H30v-248h33v105h134v-105h34V0h-34" id="aA"/><g id="z"><use transform="matrix(0.05,0,0,0.05,0,0)" xlink:href="#aA"/><use transform="matrix(0.05,0,0,0.05,12.950000000000001,0)" xlink:href="#O"/><use transform="matrix(0.05,0,0,0.05,16.900000000000002,0)" xlink:href="#ar"/><use transform="matrix(0.05,0,0,0.05,26.900000000000002,0)" xlink:href="#ay"/></g><g id="A"><use transform="matrix(0.05,0,0,0.05,0,0)" xlink:href="#R"/><use transform="matrix(0.05,0,0,0.05,5,0)" xlink:href="#ay"/><use transform="matrix(0.05,0,0,0.05,15,0)" xlink:href="#Z"/><use transform="matrix(0.05,0,0,0.05,20.95,0)" xlink:href="#S"/><use transform="matrix(0.05,0,0,0.05,30.950000000000003,0)" xlink:href="#ao"/><use transform="matrix(0.05,0,0,0.05,40.95,0)" xlink:href="#ar"/><use transform="matrix(0.05,0,0,0.05,50.95,0)" xlink:href="#ay"/><use transform="matrix(0.05,0,0,0.05,60.95,0)" xlink:href="#M"/><use transform="matrix(0.05,0,0,0.05,70.95,0)" xlink:href="#ao"/><use transform="matrix(0.05,0,0,0.05,80.95,0)" xlink:href="#R"/></g><g id="B"><use transform="matrix(0.05,0,0,0.05,0,0)" xlink:href="#an"/><use transform="matrix(0.05,0,0,0.05,14.950000000000001,0)" xlink:href="#O"/><use transform="matrix(0.05,0,0,0.05,18.900000000000002,0)" xlink:href="#T"/><use transform="matrix(0.05,0,0,0.05,28.900000000000002,0)" xlink:href="#O"/><use transform="matrix(0.05,0,0,0.05,32.85,0)" xlink:href="#am"/><use transform="matrix(0.05,0,0,0.05,47.800000000000004,0)" xlink:href="#Q"/><use transform="matrix(0.05,0,0,0.05,57.800000000000004,0)" xlink:href="#N"/></g><g id="C"><use transform="matrix(0.05,0,0,0.05,0,0)" xlink:href="#ap"/><use transform="matrix(0.05,0,0,0.05,10,0)" xlink:href="#V"/><use transform="matrix(0.05,0,0,0.05,20,0)" xlink:href="#M"/><use transform="matrix(0.05,0,0,0.05,30,0)" xlink:href="#V"/><use transform="matrix(0.05,0,0,0.05,40,0)" xlink:href="#T"/><use transform="matrix(0.05,0,0,0.05,50,0)" xlink:href="#ap"/><use transform="matrix(0.05,0,0,0.05,60,0)" xlink:href="#V"/><use transform="matrix(0.05,0,0,0.05,70,0)" xlink:href="#T"/><use transform="matrix(0.05,0,0,0.05,80,0)" xlink:href="#P"/><use transform="matrix(0.05,0,0,0.05,89,0)" xlink:href="#O"/><use transform="matrix(0.05,0,0,0.05,92.95,0)" xlink:href="#V"/><use transform="matrix(0.05,0,0,0.05,102.95,0)" xlink:href="#W"/></g><path d="M233-177c-1 41-23 64-60 70L243 0h-38l-65-103H63V0H30v-248c88 3 205-21 203 71zM63-129c60-2 137 13 137-47 0-61-80-42-137-45v92" id="aB"/><g id="D"><use transform="matrix(0.05,0,0,0.05,0,0)" xlink:href="#aB"/><use transform="matrix(0.05,0,0,0.05,12.950000000000001,0)" xlink:href="#V"/><use transform="matrix(0.05,0,0,0.05,22.950000000000003,0)" xlink:href="#M"/><use transform="matrix(0.05,0,0,0.05,32.95,0)" xlink:href="#N"/><use transform="matrix(0.05,0,0,0.05,36.900000000000006,0)" xlink:href="#Q"/><use transform="matrix(0.05,0,0,0.05,46.900000000000006,0)" xlink:href="#P"/><use transform="matrix(0.05,0,0,0.05,55.900000000000006,0)" xlink:href="#Q"/><use transform="matrix(0.05,0,0,0.05,65.9,0)" xlink:href="#ax"/><use transform="matrix(0.05,0,0,0.05,75.9,0)" xlink:href="#N"/><use transform="matrix(0.05,0,0,0.05,79.85000000000001,0)" xlink:href="#V"/></g><path d="M206 0h-36l-40-164L89 0H53L-1-190h32L70-26l43-164h34l41 164 42-164h31" id="aC"/><g id="E"><use transform="matrix(0.05,0,0,0.05,0,0)" xlink:href="#aC"/><use transform="matrix(0.05,0,0,0.05,12.950000000000001,0)" xlink:href="#O"/><use transform="matrix(0.05,0,0,0.05,16.900000000000002,0)" xlink:href="#R"/><use transform="matrix(0.05,0,0,0.05,21.900000000000002,0)" xlink:href="#ay"/></g><path d="M212-179c-10-28-35-45-73-45-59 0-87 40-87 99 0 60 29 101 89 101 43 0 62-24 78-52l27 14C228-24 195 4 139 4 59 4 22-46 18-125c-6-104 99-153 187-111 19 9 31 26 39 46" id="aD"/><g id="F"><use transform="matrix(0.05,0,0,0.05,0,0)" xlink:href="#aD"/><use transform="matrix(0.05,0,0,0.05,12.950000000000001,0)" xlink:href="#Q"/><use transform="matrix(0.05,0,0,0.05,22.950000000000003,0)" xlink:href="#T"/><use transform="matrix(0.05,0,0,0.05,32.95,0)" xlink:href="#R"/><use transform="matrix(0.05,0,0,0.05,37.95,0)" xlink:href="#S"/><use transform="matrix(0.05,0,0,0.05,47.95,0)" xlink:href="#Z"/></g><path d="M30-248c87 1 191-15 191 75 0 78-77 80-158 76V0H30v-248zm33 125c57 0 124 11 124-50 0-59-68-47-124-48v98" id="aE"/><g id="G"><use transform="matrix(0.05,0,0,0.05,0,0)" xlink:href="#ar"/><use transform="matrix(0.05,0,0,0.05,10,0)" xlink:href="#aB"/><use transform="matrix(0.05,0,0,0.05,22.950000000000003,0)" xlink:href="#aE"/><use transform="matrix(0.05,0,0,0.05,34.95,0)" xlink:href="#aD"/></g><g id="H"><use transform="matrix(0.05,0,0,0.05,0,0)" xlink:href="#P"/><use transform="matrix(0.05,0,0,0.05,9,0)" xlink:href="#N"/><use transform="matrix(0.05,0,0,0.05,12.949999999999998,0)" xlink:href="#O"/><use transform="matrix(0.05,0,0,0.05,16.9,0)" xlink:href="#V"/><use transform="matrix(0.05,0,0,0.05,26.899999999999995,0)" xlink:href="#T"/><use transform="matrix(0.05,0,0,0.05,36.9,0)" xlink:href="#R"/></g><path d="M101-251c82-7 93 87 43 132L82-64C71-53 59-42 53-27h129V0H18c2-99 128-94 128-182 0-28-16-43-45-43s-46 15-49 41l-32-3c6-41 34-60 81-64" id="aF"/><g id="I"><use transform="matrix(0.05,0,0,0.05,0,0)" xlink:href="#aA"/><use transform="matrix(0.05,0,0,0.05,12.950000000000001,0)" xlink:href="#aF"/></g><g id="J"><use transform="matrix(0.05,0,0,0.05,0,0)" xlink:href="#aE"/><use transform="matrix(0.05,0,0,0.05,12,0)" xlink:href="#Z"/><use transform="matrix(0.05,0,0,0.05,17.95,0)" xlink:href="#V"/><use transform="matrix(0.05,0,0,0.05,27.950000000000003,0)" xlink:href="#W"/><use transform="matrix(0.05,0,0,0.05,36.95,0)" xlink:href="#V"/><use transform="matrix(0.05,0,0,0.05,46.95,0)" xlink:href="#T"/><use transform="matrix(0.05,0,0,0.05,56.95,0)" xlink:href="#R"/><use transform="matrix(0.05,0,0,0.05,61.95,0)" xlink:href="#Q"/><use transform="matrix(0.05,0,0,0.05,71.95,0)" xlink:href="#R"/><use transform="matrix(0.05,0,0,0.05,76.95,0)" xlink:href="#O"/><use transform="matrix(0.05,0,0,0.05,80.9,0)" xlink:href="#S"/><use transform="matrix(0.05,0,0,0.05,90.9,0)" xlink:href="#T"/></g><path d="M160-131c35 5 61 23 61 61C221 17 115-2 30 0v-248c76 3 177-17 177 60 0 33-19 50-47 57zm-97-11c50-1 110 9 110-42 0-47-63-36-110-37v79zm0 115c55-2 124 14 124-45 0-56-70-42-124-44v89" id="aG"/><g id="K"><use transform="matrix(0.05,0,0,0.05,0,0)" xlink:href="#aG"/><use transform="matrix(0.05,0,0,0.05,12,0)" xlink:href="#ao"/><use transform="matrix(0.05,0,0,0.05,22,0)" xlink:href="#W"/><use transform="matrix(0.05,0,0,0.05,31,0)" xlink:href="#O"/><use transform="matrix(0.05,0,0,0.05,34.95,0)" xlink:href="#T"/><use transform="matrix(0.05,0,0,0.05,44.95,0)" xlink:href="#V"/><use transform="matrix(0.05,0,0,0.05,54.95,0)" xlink:href="#W"/><use transform="matrix(0.05,0,0,0.05,63.95,0)" xlink:href="#W"/></g></defs></g></svg>
